{"title":"Birdsong Part 1 2012 BRRip Ac3 Xvid ANALOG","uid":7103620,"size":1498943420,"categoryP":"video","categoryS":"movies","magnet":"?xt=urn:btih:df3fa8b7608bd1f1a14a856b500987019920ac87&amp;dn=Birdsong+Part+1+2012+BRRip+Ac3+Xvid+ANALOG&amp;tr=udp%3A%2F%2Ftracker.openbittorrent.com%3A80&amp;tr=udp%3A%2F%2Fopen.demonii.com%3A1337&amp;tr=udp%3A%2F%2Ftracker.coppersurfer.tk%3A6969&amp;tr=udp%3A%2F%2Fexodus.desync.com%3A6969","seeders":3,"leechers":1,"uploader":".BONE.","files":8,"time":1331785054,"description":"Complete name : C:UsersrootDesktopBirdsong.Part.1.2012.BRRip.Ac3.Xvid.ANALOGB.P1.2012.BRR.ANALOG.avi\nFormat : AVI\nFormat/Info : Audio Video Interleave\nFormat profile : OpenDML\nFile size : 1.38 GiB\nDuration : 1h 24mn\nOverall bit rate : 2 334 Kbps\nWriting library : VirtualDub build 32842/release\n\nVideo\nID : 0\nFormat : MPEG-4 Visual\nFormat profile : Advanced Simple@L5\nFormat settings, BVOP : 2\nFormat settings, QPel : No\nFormat settings, GMC : No warppoints\nFormat settings, Matrix : Default (H.263)\nMuxing mode : Packed bitstream\nCodec ID : XVID\nCodec ID/Hint : XviD\nDuration : 1h 24mn\nBit rate : 1 875 Kbps\nWidth : 720 pixels\nHeight : 400 pixels\nDisplay aspect ratio : 16:9\nFrame rate : 25.000 fps\nColor space : YUV\nChroma subsampling : 4:2:0\nBit depth : 8 bits\nScan type : Progressive\nCompression mode : Lossy\nBits/(Pixel*Frame) : 0.260\nStream size : 1.11 GiB (80%)\nWriting library : XviD 58\n\nAudio\nID : 1\nFormat : AC-3\nFormat/Info : Audio Coding 3\nMode extension : CM (complete main)\nCodec ID : 2000\nDuration : 1h 24mn\nBit rate mode : Constant\nBit rate : 448 Kbps\nChannel(s) : 6 channels\nChannel positions : Front: L C R, Side: L R, LFE\nSampling rate : 48.0 KHz\nBit depth : 16 bits\nCompression mode : Lossy\nStream size : 271 MiB (19%)\nAlignment : Aligned on interleaves\nInterleave, duration : 40 ms (1.00 video frame)\nInterleave, preload duration : 512 ms\nSubs : English/hardcoded/embed when needed\nSample : Yes\nSource : 1080p HDC THANX\n\n","torrent":{"xt":"urn:btih:df3fa8b7608bd1f1a14a856b500987019920ac87","amp;dn":"Birdsong+Part+1+2012+BRRip+Ac3+Xvid+ANALOG","amp;tr":["udp%3A%2F%2Ftracker.openbittorrent.com%3A80","udp%3A%2F%2Fopen.demonii.com%3A1337","udp%3A%2F%2Ftracker.coppersurfer.tk%3A6969","udp%3A%2F%2Fexodus.desync.com%3A6969"],"infoHash":"df3fa8b7608bd1f1a14a856b500987019920ac87","infoHashBuffer":{"type":"Buffer","data":[223,63,168,183,96,139,209,241,161,74,133,107,80,9,135,1,153,32,172,135]},"announce":[],"urlList":[]}}